<svg width="40" height="40" viewBox="0 0 40 40" fill="none" xmlns="http://www.w3.org/2000/svg">
<path d="M20 16.6665C18.1666 16.6665 16.6666 18.1665 16.6666 19.9998C16.6666 21.8332 18.1666 23.3332 20 23.3332C21.8333 23.3332 23.3333 21.8332 23.3333 19.9998C23.3333 18.1665 21.8333 16.6665 20 16.6665ZM30 16.6665C28.1666 16.6665 26.6666 18.1665 26.6666 19.9998C26.6666 21.8332 28.1666 23.3332 30 23.3332C31.8333 23.3332 33.3333 21.8332 33.3333 19.9998C33.3333 18.1665 31.8333 16.6665 30 16.6665ZM9.99996 16.6665C8.16663 16.6665 6.66663 18.1665 6.66663 19.9998C6.66663 21.8332 8.16663 23.3332 9.99996 23.3332C11.8333 23.3332 13.3333 21.8332 13.3333 19.9998C13.3333 18.1665 11.8333 16.6665 9.99996 16.6665Z" fill="white"/>
</svg>
