<svg width="40" height="40" viewBox="0 0 40 40" fill="none" xmlns="http://www.w3.org/2000/svg">
<path d="M3.60837 32.5848C3.91837 33.0515 4.44004 33.3332 5.00004 33.3332H30C30.6667 33.3332 31.27 32.9365 31.5317 32.3232L36.5317 20.6565C36.7534 20.1415 36.7 19.5515 36.3917 19.0832C36.0817 18.6148 35.56 18.3332 35 18.3332H33.3334V13.3332C33.3334 11.4948 31.8384 9.99984 30 9.99984H18.9084L14.6484 6.6665H6.66671C4.82837 6.6665 3.33337 8.1615 3.33337 9.99984V31.6665H3.34504C3.34504 31.9865 3.42671 32.3082 3.60837 32.5848ZM30 13.3332V18.3332H10C9.33337 18.3332 8.73004 18.7298 8.46837 19.3432L6.66671 23.5482V13.3332H17.7584H18.3334H30Z" fill="white"/>
</svg>
